#!OML:ASF H:\ManfredETheater\Project 1\Capture day 1\Session 1\subject.ASF
:FULLY-SPECIFIED
:DEGREES
1651
root 1.35384 17.882 -4.13072 5.22181 2.11821 0.609254
lowerback 2.34165 -0.417705 -1.42639
upperback -2.0351 -0.567093 1.48598
thorax -3.37794 -0.229066 2.36017
lowerneck -20.3805 -3.59927 -4.26172
upperneck 10.4899 -4.72667 6.74768
head 6.78204 -1.8455 2.33741
rclavicle 1.922e-014 -3.18055e-015
rhumerus -16.8206 -25.7485 -1.61624
rradius 23.9364
rwrist 4.61315
rhand -18.2674 -19.1966
rfingers 7.12502
rthumb 8.01226 -49.0247
lclavicle 1.922e-014 -3.18055e-015
lhumerus -15.9807 25.9394 9.87148
lradius 23.2179
lwrist -18.6087
lhand -16.018 16.8459
lfingers 7.12502
lthumb 10.1828 46.5795
rfemur -9.28136 -1.72379 8.67817
rtibia 26.7649
rfoot -16.3566 -19.0187
rtoes 1.04511
lfemur -13.241 -6.55065 -10.7793
ltibia 29.8999
lfoot -16.2412 9.1554
ltoes -11.3354
1652
root 1.35637 17.8815 -4.12616 5.22435 2.09007 0.607528
lowerback 2.30051 -0.412689 -1.42531
upperback -2.03811 -0.560513 1.46936
thorax -3.35828 -0.226225 2.34162
lowerneck -20.3772 -3.59895 -4.26681
upperneck 10.4838 -4.72447 6.74688
head 6.77948 -1.84489 2.33826
rclavicle 6.74625e-015 -2.38542e-015
rhumerus -16.7998 -25.7612 -1.61863
rradius 23.9316
rwrist 4.62384
rhand -18.2584 -19.1892
rfingers 7.12502
rthumb 8.02091 -49.017
lclavicle 6.74625e-015 -2.38542e-015
lhumerus -15.9709 25.9034 9.84172
lradius 23.2327
lwrist -18.5772
lhand -16.0125 16.844
lfingers 7.12502
lthumb 10.1881 46.5773
rfemur -9.26211 -1.70074 8.66847
rtibia 26.7419
rfoot -16.3573 -19.013
rtoes 1.02238
lfemur -13.2271 -6.53103 -10.7911
ltibia 29.9169
lfoot -16.2691 9.16551
ltoes -11.3117
1653
root 1.35838 17.881 -4.12165 5.22703 2.0625 0.602709
lowerback 2.26049 -0.407434 -1.42292
upperback -2.04009 -0.553543 1.45365
thorax -3.33821 -0.223221 2.32326
lowerneck -20.3789 -3.59847 -4.27028
upperneck 10.4796 -4.72194 6.74294
head 6.7782 -1.8442 2.33781
rclavicle 5.28022e-015 3.57812e-015
rhumerus -16.7804 -25.7667 -1.62144
rradius 23.9288
rwrist 4.62344
rhand -18.2486 -19.1858
rfingers 7.12502
rthumb 8.03037 -49.0132
lclavicle 5.28022e-015 3.57812e-015
lhumerus -15.9626 25.87 9.8127
lradius 23.2477
lwrist -18.546
lhand -16.0069 16.8424
lfingers 7.12502
lthumb 10.1935 46.5755
rfemur -9.24359 -1.67695 8.66432
rtibia 26.7197
rfoot -16.36 -19.0078
rtoes 1.00304
lfemur -13.2137 -6.51357 -10.7977
ltibia 29.9337
lfoot -16.2961 9.17855
ltoes -11.291
1654
root 1.3599 17.8804 -4.11719 5.22973 2.03555 0.595327
lowerback 2.22211 -0.402036 -1.41979
upperback -2.04139 -0.546341 1.43876
thorax -3.31838 -0.220108 2.30535
lowerneck -20.3867 -3.59763 -4.27176
upperneck 10.4798 -4.71896 6.73552
head 6.77915 -1.84335 2.33592
rclavicle 5.60324e-015 1.98785e-015
rhumerus -16.762 -25.7654 -1.62503
rradius 23.928
rwrist 4.61407
rhand -18.2395 -19.1876
rfingers 7.12502
rthumb 8.03923 -49.0147
lclavicle 5.60324e-015 1.98785e-015
lhumerus -15.9551 25.8479 9.78388
lradius 23.2608
lwrist -18.5232
lhand -16.0031 16.8425
lfingers 7.12502
lthumb 10.1971 46.5753
rfemur -9.22563 -1.65204 8.66505
rtibia 26.6983
rfoot -16.3647 -19.0033
rtoes 0.988121
lfemur -13.2007 -6.49892 -10.7998
ltibia 29.9501
lfoot -16.3219 9.19539
ltoes -11.2722
1655
root 1.36096 17.88 -4.11279 5.23256 2.00927 0.585968
lowerback 2.18562 -0.396615 -1.41628
upperback -2.04257 -0.539088 1.42454
thorax -3.29948 -0.216959 2.28795
lowerneck -20.4004 -3.5962 -4.27158
upperneck 10.486 -4.71534 6.72531
head 6.78287 -1.84218 2.33289
rclavicle -1.2424e-015 -7.95139e-015
rhumerus -16.7441 -25.7581 -1.6296
rradius 23.9288
rwrist 4.59903
rhand -18.2312 -19.1946
rfingers 7.12502
rthumb 8.0472 -49.0214
lclavicle -1.2424e-015 -7.95139e-015
lhumerus -15.9477 25.8416 9.755
lradius 23.2702
lwrist -18.5131
lhand -16.002 16.8446
lfingers 7.12502
lthumb 10.1982 46.5774
rfemur -9.20846 -1.62654 8.66979
rtibia 26.6781
rfoot -16.3711 -18.9992
rtoes 0.97762
lfemur -13.1879 -6.48761 -10.7984
ltibia 29.9659
lfoot -16.3461 9.21656
ltoes -11.2548
1656
root 1.36161 17.8795 -4.10844 5.23563 1.98354 0.575489
lowerback 2.15087 -0.391233 -1.41294
upperback -2.04416 -0.531892 1.41071
thorax -3.28199 -0.213807 2.27108
lowerneck -20.4183 -3.59387 -4.2704
upperneck 10.4985 -4.71075 6.71357
head 6.78917 -1.84046 2.32929
rclavicle -7.52897e-015 1.90833e-014
rhumerus -16.7268 -25.7441 -1.63549
rradius 23.9319
rwrist 4.57945
rhand -18.2244 -19.2065
rfingers 7.12502
rthumb 8.05373 -49.0331
lclavicle -7.52897e-015 1.90833e-014
lhumerus -15.94 25.8526 9.72594
lradius 23.275
lwrist -18.5176
lhand -16.004 16.8488
lfingers 7.12502
lthumb 10.1963 46.5817
rfemur -9.19244 -1.60151 8.67733
rtibia 26.6593
rfoot -16.3786 -18.9947
rtoes 0.970785
lfemur -13.1752 -6.47987 -10.7946
ltibia 29.9807
lfoot -16.3687 9.24221
ltoes -11.2381
1657
root 1.36188 17.8791 -4.10412 5.23893 1.95814 0.564261
lowerback 2.11759 -0.385883 -1.40995
upperback -2.04655 -0.524749 1.39719
thorax -3.26613 -0.210643 2.25476
lowerneck -20.4382 -3.59049 -4.26931
upperneck 10.5168 -4.705 6.70191
head 6.79763 -1.83807 2.32586
rclavicle 2.90723e-015 3.97569e-015
rhumerus -16.71 -25.7242 -1.64264
rradius 23.9371
rwrist 4.55745
rhand -18.2195 -19.2215
rfingers 7.12502
rthumb 8.05852 -49.0478
lclavicle 2.90723e-015 3.97569e-015
lhumerus -15.9321 25.878 9.69702
lradius 23.2754
lwrist -18.5339
lhand -16.0085 16.8545
lfingers 7.12502
lthumb 10.192 46.5876
rfemur -9.17783 -1.57796 8.68705
rtibia 26.6423
rfoot -16.3865 -18.9892
rtoes 0.965898
lfemur -13.1623 -6.47547 -10.789
ltibia 29.9939
lfoot -16.3899 9.27194
ltoes -11.2219
1658
root 1.3618 17.8787 -4.09981 5.24243 1.93279 0.552192
lowerback 2.08539 -0.380493 -1.40711
upperback -2.04994 -0.517552 1.38403
thorax -3.25192 -0.207416 2.23893
lowerneck -20.4573 -3.58607 -4.26927
upperneck 10.5387 -4.69802 6.69171
head 6.80715 -1.83498 2.32324
rclavicle 1.3418e-014 -8.74653e-015
rhumerus -16.6938 -25.6985 -1.65105
rradius 23.9449
rwrist 4.53318
rhand -18.2161 -19.2384
rfingers 7.12502
rthumb 8.06182 -49.0646
lclavicle 1.3418e-014 -8.74653e-015
lhumerus -15.9241 25.9121 9.6689
lradius 23.2721
lwrist -18.5572
lhand -16.0144 16.8612
lfingers 7.12502
lthumb 10.1862 46.5946
rfemur -9.16482 -1.55668 8.69888
rtibia 26.6273
rfoot -16.3941 -18.9822
rtoes 0.960304
lfemur -13.1487 -6.47391 -10.7813
ltibia 30.0055
lfoot -16.41 9.3049
ltoes -11.2056
